<?xml version="1.0" encoding="utf-8"?>
<!-- Generator: Adobe Illustrator 27.2.0, SVG Export Plug-In . SVG Version: 6.00 Build 0)  -->
<svg version="1.1" id="圖層_1" xmlns="http://www.w3.org/2000/svg" xmlns:xlink="http://www.w3.org/1999/xlink" x="0px" y="0px"
	 viewBox="0 0 300 150" style="enable-background:new 0 0 300 150;" xml:space="preserve">
<style type="text/css">
	.st0{fill:#644F96;}
	.st1{fill:#875398;}
	.st2{fill:url(#SVGID_1_);}
	.st3{fill:#FFFFFF;}
	.st4{fill:url(#SVGID_00000072984792802361102420000018196347307143394234_);}
	.st5{fill:url(#SVGID_00000078027879172331005010000002031005599424236690_);}
	.st6{fill:url(#SVGID_00000110467147543530154340000003124610415675158416_);}
	.st7{fill:url(#SVGID_00000155147691240220245890000003955245235041959055_);}
	.st8{fill:url(#SVGID_00000048480152749874254590000012253953884084729222_);}
	.st9{fill:url(#SVGID_00000147906100344822985930000009851201333194483087_);}
	.st10{fill:url(#SVGID_00000031917721734994217070000015070062245342141370_);}
	.st11{fill:url(#SVGID_00000023263338779386887050000000994019777163499398_);}
	.st12{fill:url(#SVGID_00000112612219009680822530000007374379349858495905_);}
	.st13{fill:url(#SVGID_00000125589051629267458720000014436286483912645291_);}
</style>
<g>
	<polygon class="st0" points="21.37,33.76 58.16,57.08 94.96,33.76 94.96,57.44 58.16,80.4 21.37,57.44 	"/>
	<polygon class="st1" points="21.06,66.19 39.86,78.29 21.37,115.79 	"/>
	<polygon class="st1" points="94.96,66.38 76.28,78.64 94.96,115.79 	"/>
	<linearGradient id="SVGID_1_" gradientUnits="userSpaceOnUse" x1="44.1712" y1="98.0164" x2="72.1501" y2="98.0164">
		<stop  offset="0" style="stop-color:#644F96"/>
		<stop  offset="1" style="stop-color:#875398"/>
	</linearGradient>
	<circle class="st2" cx="58.16" cy="98.02" r="13.99"/>
	<circle class="st3" cx="58.16" cy="98.02" r="6.93"/>
</g>
<g>
	
		<linearGradient id="SVGID_00000075883072689713328350000002900326189574265258_" gradientUnits="userSpaceOnUse" x1="108.8409" y1="59.3688" x2="135.8135" y2="59.3688">
		<stop  offset="0" style="stop-color:#644F96"/>
		<stop  offset="1" style="stop-color:#875398"/>
	</linearGradient>
	<path style="fill:url(#SVGID_00000075883072689713328350000002900326189574265258_);" d="M108.84,69.69V49.05h3.89l9.73,12.48
		l9.51-12.48h3.85v20.64h-4.45V56.94c0-0.25,0.02-0.56,0.05-0.94c0.03-0.38,0.08-0.8,0.13-1.27c-0.26,0.53-0.49,0.97-0.68,1.32
		c-0.2,0.35-0.37,0.63-0.53,0.85l-7.75,10.31h-0.96l-7.77-10.35c-0.29-0.39-0.53-0.76-0.73-1.1c-0.2-0.34-0.37-0.68-0.5-1.01
		c0.04,0.43,0.07,0.82,0.09,1.17s0.03,0.69,0.03,1.02v12.75H108.84z"/>
	
		<linearGradient id="SVGID_00000109026862072648652690000017350571343596053636_" gradientUnits="userSpaceOnUse" x1="145.4815" y1="59.3688" x2="170.9112" y2="59.3688">
		<stop  offset="0" style="stop-color:#644F96"/>
		<stop  offset="1" style="stop-color:#875398"/>
	</linearGradient>
	<path style="fill:url(#SVGID_00000109026862072648652690000017350571343596053636_);" d="M145.48,53.93c0-1.88,0.35-3.16,1.05-3.85
		c0.7-0.69,2.06-1.04,4.06-1.04h15.2c2,0,3.36,0.35,4.06,1.04c0.7,0.69,1.05,1.97,1.05,3.85v10.88c0,1.89-0.35,3.17-1.05,3.86
		s-2.06,1.03-4.06,1.03h-15.2c-2,0-3.36-0.34-4.06-1.03s-1.05-1.97-1.05-3.86V53.93z M150.29,65.8h15.84V52.74h-15.84V65.8z"/>
	
		<linearGradient id="SVGID_00000021824413125392471920000013668234797517673118_" gradientUnits="userSpaceOnUse" x1="180.9893" y1="59.3688" x2="207.9619" y2="59.3688">
		<stop  offset="0" style="stop-color:#644F96"/>
		<stop  offset="1" style="stop-color:#875398"/>
	</linearGradient>
	<path style="fill:url(#SVGID_00000021824413125392471920000013668234797517673118_);" d="M180.99,69.69V49.05h3.89l9.73,12.48
		l9.51-12.48h3.85v20.64h-4.45V56.94c0-0.25,0.02-0.56,0.05-0.94c0.03-0.38,0.08-0.8,0.13-1.27c-0.26,0.53-0.49,0.97-0.68,1.32
		c-0.2,0.35-0.37,0.63-0.53,0.85l-7.75,10.31h-0.96l-7.77-10.35c-0.29-0.39-0.53-0.76-0.73-1.1c-0.2-0.34-0.37-0.68-0.5-1.01
		c0.04,0.43,0.07,0.82,0.09,1.17s0.03,0.69,0.03,1.02v12.75H180.99z"/>
	
		<linearGradient id="SVGID_00000002357148832906196260000005779693456668118187_" gradientUnits="userSpaceOnUse" x1="217.6299" y1="59.3688" x2="243.0596" y2="59.3688">
		<stop  offset="0" style="stop-color:#644F96"/>
		<stop  offset="1" style="stop-color:#875398"/>
	</linearGradient>
	<path style="fill:url(#SVGID_00000002357148832906196260000005779693456668118187_);" d="M217.63,53.93c0-1.88,0.35-3.16,1.05-3.85
		c0.7-0.69,2.06-1.04,4.06-1.04h15.2c2,0,3.36,0.35,4.06,1.04c0.7,0.69,1.05,1.97,1.05,3.85v10.88c0,1.89-0.35,3.17-1.05,3.86
		s-2.06,1.03-4.06,1.03h-15.2c-2,0-3.36-0.34-4.06-1.03s-1.05-1.97-1.05-3.86V53.93z M222.43,65.8h15.84V52.74h-15.84V65.8z"/>
	
		<linearGradient id="SVGID_00000121248284052229134340000016059557279248823974_" gradientUnits="userSpaceOnUse" x1="105.169" y1="96.3688" x2="139.0948" y2="96.3688">
		<stop  offset="0" style="stop-color:#644F96"/>
		<stop  offset="1" style="stop-color:#875398"/>
	</linearGradient>
	<path style="fill:url(#SVGID_00000121248284052229134340000016059557279248823974_);" d="M113.12,106.69l-7.95-20.64h4.96
		l5.23,13.85l5.49-13.85h3.36l5.59,13.85l5-13.85h4.3l-7.97,20.64h-3.24l-5.68-14.28l-5.76,14.28H113.12z"/>
	
		<linearGradient id="SVGID_00000000210185345843349290000010439728299652889479_" gradientUnits="userSpaceOnUse" x1="140.8916" y1="96.3688" x2="169.0362" y2="96.3688">
		<stop  offset="0" style="stop-color:#644F96"/>
		<stop  offset="1" style="stop-color:#875398"/>
	</linearGradient>
	<path style="fill:url(#SVGID_00000000210185345843349290000010439728299652889479_);" d="M140.89,106.69l11.68-20.64h4.63
		l11.84,20.64h-5.39l-2.48-4.51h-13.09l-2.4,4.51H140.89z M150.13,98.45h9.04l-4.45-8.4L150.13,98.45z"/>
	
		<linearGradient id="SVGID_00000157272975583952214890000008391553073982430127_" gradientUnits="userSpaceOnUse" x1="175.6768" y1="96.3688" x2="195.9698" y2="96.3688">
		<stop  offset="0" style="stop-color:#644F96"/>
		<stop  offset="1" style="stop-color:#875398"/>
	</linearGradient>
	<path style="fill:url(#SVGID_00000157272975583952214890000008391553073982430127_);" d="M175.68,106.69V86.05h4.8v16.76h15.49
		v3.89H175.68z"/>
	
		<linearGradient id="SVGID_00000068654941580137587950000002206715065313721745_" gradientUnits="userSpaceOnUse" x1="203.001" y1="96.3688" x2="223.294" y2="96.3688">
		<stop  offset="0" style="stop-color:#644F96"/>
		<stop  offset="1" style="stop-color:#875398"/>
	</linearGradient>
	<path style="fill:url(#SVGID_00000068654941580137587950000002206715065313721745_);" d="M203,106.69V86.05h4.8v16.76h15.49v3.89
		H203z"/>
	
		<linearGradient id="SVGID_00000098211283111711925440000012118519558515457965_" gradientUnits="userSpaceOnUse" x1="230.3252" y1="96.3688" x2="251.6534" y2="96.3688">
		<stop  offset="0" style="stop-color:#644F96"/>
		<stop  offset="1" style="stop-color:#875398"/>
	</linearGradient>
	<path style="fill:url(#SVGID_00000098211283111711925440000012118519558515457965_);" d="M230.33,106.69V86.05h21.13v3.52h-16.33
		v4.61h9.53v3.52h-9.53v5.12h16.52v3.89H230.33z"/>
	
		<linearGradient id="SVGID_00000173873444216161139100000010118766770881069496_" gradientUnits="userSpaceOnUse" x1="255.8526" y1="96.3688" x2="279.6416" y2="96.3688">
		<stop  offset="0" style="stop-color:#644F96"/>
		<stop  offset="1" style="stop-color:#875398"/>
	</linearGradient>
	<path style="fill:url(#SVGID_00000173873444216161139100000010118766770881069496_);" d="M270.13,89.74v16.95h-4.8V89.74h-9.47
		v-3.69h23.79v3.69H270.13z"/>
</g>
<g>
</g>
<g>
</g>
<g>
</g>
<g>
</g>
<g>
</g>
<g>
</g>
</svg>
